<?xml version="1.0" encoding="UTF-8"?>
<svg xmlns="http://www.w3.org/2000/svg" viewBox="138 425 928 360" role="img" aria-label="BookBridge">
  <g fill="#F3EBDB">
    <path d="M492.087,479.266h31.954c19.395,0,32.748,11.922,32.748,29.727,0,12.559-4.769,20.826-14.308,25.754v.477c15.102,2.225,25.595,14.465,25.595,30.204,0,20.03-15.103,33.702-37.836,33.702h-38.154v-119.865ZM521.657,531.568c13.194,0,21.302-7.789,21.302-20.826,0-11.127-7.948-19.396-19.553-19.396h-17.01v40.221h15.261ZM527.061,587.208c16.693,0,25.913-8.267,25.913-22.892,0-12.558-10.016-21.302-24.164-21.302h-22.415v44.194h20.666Z"/>
    <path d="M579.039,539.357c0-35.61,27.343-62.159,62.636-62.159s62.635,26.072,62.635,62.476c0,35.134-27.184,61.523-62.158,61.523-36.564,0-63.113-26.23-63.113-61.84ZM689.208,539.835c0-27.821-21.144-48.805-47.533-48.805-27.503,0-47.533,21.143-47.533,48.645,0,27.345,20.349,48.011,48.01,48.011,26.39,0,47.056-21.62,47.056-47.851Z"/>
    <path d="M717.176,539.357c0-35.61,27.343-62.159,62.635-62.159s62.635,26.072,62.635,62.476c0,35.134-27.185,61.523-62.159,61.523-36.563,0-63.112-26.23-63.112-61.84ZM827.344,539.835c0-27.821-21.143-48.805-47.533-48.805-27.503,0-47.533,21.143-47.533,48.645,0,27.345,20.349,48.011,48.009,48.011,26.39,0,47.056-21.62,47.056-47.851Z"/>
    <path d="M861.195,479.266h14.308v53.255h.318l49.282-53.255h17.169l-53.415,56.593,59.297,63.272h-18.918l-51.349-55.004-2.384,2.544v52.46h-14.308v-119.865Z"/>
    <path d="M492.087,627.93h31.954c19.395,0,32.748,11.923,32.748,29.728,0,12.559-4.769,20.826-14.308,25.754v.476c15.102,2.226,25.595,14.467,25.595,30.206,0,20.031-15.103,33.702-37.836,33.702h-38.154v-119.867ZM521.657,680.233c13.194,0,21.302-7.791,21.302-20.826,0-11.129-7.948-19.394-19.553-19.394h-17.01v40.22h15.261ZM527.061,735.873c16.693,0,25.913-8.267,25.913-22.892,0-12.559-10.016-21.302-24.164-21.302h-22.415v44.194h20.666Z"/>
    <path d="M594.14,627.93h31.954c16.533,0,32.431,9.857,32.431,31.636,0,21.462-13.194,31-30.363,33.702l39.742,54.528h-17.964l-37.2-53.892c-1.59,0-3.02,0-4.292-.159v54.051h-14.308v-119.867ZM615.761,683.413c16.057,0,27.821-6.042,27.821-23.369,0-12.876-9.22-20.03-21.302-20.03h-13.83v43.241c2.225.159,4.768.159,7.312.159Z"/>
    <path d="M703.667,627.93v119.867h-14.308v-119.867h14.308Z"/>
    <path d="M772.021,627.93c31.477,0,57.071,26.39,57.071,58.821,0,35.929-27.184,61.046-59.138,61.046h-33.702v-119.867h35.769ZM767.888,735.078c25.913,0,46.102-19.554,46.102-47.533,0-27.343-19.395-46.898-45.308-46.898h-18.122v94.431h17.328Z"/>
    <path d="M849.91,688.817c0-36.723,26.707-62.953,62.795-62.953,21.302,0,41.014,11.129,52.46,30.364l-11.923,6.678c-9.698-15.422-24.482-24.005-41.174-24.005-27.026,0-47.056,19.871-47.056,50.075,0,27.662,20.189,48.169,47.851,48.169,23.846,0,41.81-15.261,43.082-37.357h-38.789v-12.084h53.732c1.431,37.042-22.573,62.159-59.297,62.159-34.816,0-61.682-26.072-61.682-61.046Z"/>
    <path d="M997.744,627.93h59.615v12.718h-45.308v37.042h44.195v12.399h-44.195v44.99h45.308v12.718h-59.615v-119.867Z"/>
  </g>
  <g fill="#F3EBDB">
    <path d="M413.23,687.052c-1.454.879-3.095,1.724-4.888,2.52v52.718c0,14.005-11.366,25.37-25.37,25.37h18.571c14.011,0,25.37-11.358,25.37-25.37v-63.356c-3.095,2.013-5.818,3.62-7.848,4.736-1.962,1.099-3.907,2.215-5.835,3.383Z"/>
    <path d="M388.013,695.762c-48.067,10.418-131.753,8.473-139.229,8.541-9.319.085-15.069-2.757-13.446-6.157,1.624-3.399,23.222-.812,23.374-3.805.169-3.01-25.387-2.553-31.814-3.636-6.444-1.099-7.746-2.74-7.053-5.767.812-3.434,11.162-2.605,20.143-2.605s16.456,1.217,15.171-2.199c-1.827-4.854-37.547-3.163-41.911-4.262-4.363-1.082-4.313-7.983,1.742-9.691,6.072-1.691,20.871,1.218,30.342,2.317,9.471,1.083,11.281-.863,10.436-2.926-.846-2.046-25.725-4.719-31.543-6.309-5.835-1.573-6.917-6.664-.491-7.645,6.427-.965,45.852,7.695,48.642,7.459,2.79-.254,1.64-3.958-8.322-8.575-6.833-3.163-8.135-6.478-7.12-8.405.541-1.032,1.691-1.641,2.858-1.472,2.537.372,8.322,2.148,21.108,9.031,24.947,13.463,33.962,10.824,52.752,8.22,10.046-1.387,33.302-8.085,54.359-17.167v-119.626c0-14.021-5.683-26.706-14.867-35.889-11.366-11.366-26.537-13.819-35.873-14.85-40.913-4.532-73.826,6.647-107.923,9.336-18.418,1.455-46.393,1.167-81.876-9.336v27.72s-10.875-2.561,0,16.812c12.803,20.11,74.959,40.236,93.276,42.791,18.774,2.604,27.789,5.242,52.735-8.22,12.786-6.901,18.571-8.66,21.108-9.031,1.167-.169,2.317.423,2.858,1.472,1.015,1.927-.287,5.242-7.12,8.405-9.945,4.601-11.112,8.321-8.305,8.558,2.774.254,42.198-8.406,48.625-7.442,6.427.981,5.345,6.072-.49,7.645-5.818,1.573-30.697,4.245-31.543,6.309-.846,2.063.964,4.009,10.435,2.909,9.471-1.082,24.27-3.991,30.342-2.3,6.055,1.709,6.106,8.592,1.742,9.691-4.364,1.099-40.084-.592-41.911,4.262-1.285,3.416,6.19,2.182,15.171,2.182s19.332-.812,20.143,2.622c.693,3.027-.609,4.668-7.036,5.75-6.444,1.099-31.999.642-31.831,3.636.169,2.994,21.75.405,23.374,3.805,1.624,3.416-4.127,6.241-13.446,6.173-9.099-.084-131.313,2.824-164.446-17.268-1.928-1.167-3.856-2.266-5.835-3.365-2.013-1.117-4.752-2.724-7.847-4.736v138.197c0,28.023,22.717,50.739,50.739,50.739h164.429c14.011,0,25.37-11.358,25.37-25.37v-46.528Z"/>
    <path d="M426.913,598.291v-115.211c0-28.008-22.714-50.739-50.739-50.739h-206.205c-9.775,0-18.266,5.547-22.494,13.665h210.128c28.023,0,50.739,22.717,50.739,50.739v133.85c4.237-2.478,8.042-5.032,11.207-7.626,4.582-3.756,8.173-8.62,10.434-14.097,5.119-12.399-3.071-10.582-3.071-10.582Z"/>
  </g>
</svg>
