<?xml version="1.0" encoding="UTF-8"?>
<svg xmlns="http://www.w3.org/2000/svg" viewBox="0 0 512 512" role="img" aria-label="BookBridge">
  <rect width="512" height="512" fill="#4D1E2E"/>
  <svg viewBox="138 426 322 350" x="148" y="148" width="216" height="216" preserveAspectRatio="xMidYMid meet">
    <g fill="#F3EBDB">
      <path d="M413.23,687.052c-1.454.879-3.095,1.724-4.888,2.52v52.718c0,14.005-11.366,25.37-25.37,25.37h18.571c14.011,0,25.37-11.358,25.37-25.37v-63.356c-3.095,2.013-5.818,3.62-7.848,4.736-1.962,1.099-3.907,2.215-5.835,3.383Z"/>
      <path d="M388.013,695.762c-48.067,10.418-131.753,8.473-139.229,8.541-9.319.085-15.069-2.757-13.446-6.157,1.624-3.399,23.222-.812,23.374-3.805.169-3.01-25.387-2.553-31.814-3.636-6.444-1.099-7.746-2.74-7.053-5.767.812-3.434,11.162-2.605,20.143-2.605s16.456,1.217,15.171-2.199c-1.827-4.854-37.547-3.163-41.911-4.262-4.363-1.082-4.313-7.983,1.742-9.691,6.072-1.691,20.871,1.218,30.342,2.317,9.471,1.083,11.281-.863,10.436-2.926-.846-2.046-25.725-4.719-31.543-6.309-5.835-1.573-6.917-6.664-.491-7.645,6.427-.965,45.852,7.695,48.642,7.459,2.79-.254,1.64-3.958-8.322-8.575-6.833-3.163-8.135-6.478-7.12-8.405.541-1.032,1.691-1.641,2.858-1.472,2.537.372,8.322,2.148,21.108,9.031,24.947,13.463,33.962,10.824,52.752,8.22,10.046-1.387,33.302-8.085,54.359-17.167v-119.626c0-14.021-5.683-26.706-14.867-35.889-11.366-11.366-26.537-13.819-35.873-14.85-40.913-4.532-73.826,6.647-107.923,9.336-18.418,1.455-46.393,1.167-81.876-9.336v27.72s-10.875-2.561,0,16.812c12.803,20.11,74.959,40.236,93.276,42.791,18.774,2.604,27.789,5.242,52.735-8.22,12.786-6.901,18.571-8.66,21.108-9.031,1.167-.169,2.317.423,2.858,1.472,1.015,1.927-.287,5.242-7.12,8.405-9.945,4.601-11.112,8.321-8.305,8.558,2.774.254,42.198-8.406,48.625-7.442,6.427.981,5.345,6.072-.49,7.645-5.818,1.573-30.697,4.245-31.543,6.309-.846,2.063.964,4.009,10.435,2.909,9.471-1.082,24.27-3.991,30.342-2.3,6.055,1.709,6.106,8.592,1.742,9.691-4.364,1.099-40.084-.592-41.911,4.262-1.285,3.416,6.19,2.182,15.171,2.182s19.332-.812,20.143,2.622c.693,3.027-.609,4.668-7.036,5.75-6.444,1.099-31.999.642-31.831,3.636.169,2.994,21.75.405,23.374,3.805,1.624,3.416-4.127,6.241-13.446,6.173-9.099-.084-131.313,2.824-164.446-17.268-1.928-1.167-3.856-2.266-5.835-3.365-2.013-1.117-4.752-2.724-7.847-4.736v138.197c0,28.023,22.717,50.739,50.739,50.739h164.429c14.011,0,25.37-11.358,25.37-25.37v-46.528Z"/>
      <path d="M426.913,598.291v-115.211c0-28.008-22.714-50.739-50.739-50.739h-206.205c-9.775,0-18.266,5.547-22.494,13.665h210.128c28.023,0,50.739,22.717,50.739,50.739v133.85c4.237-2.478,8.042-5.032,11.207-7.626,4.582-3.756,8.173-8.62,10.434-14.097,5.119-12.399-3.071-10.582-3.071-10.582Z"/>
    </g>
  </svg>
</svg>
